<mxfile host="app.diagrams.net" modified="2024-02-29T15:30:21.147Z" agent="Mozilla/5.0 (Windows NT 10.0; Win64; x64) AppleWebKit/537.36 (KHTML, like Gecko) Chrome/121.0.0.0 Safari/537.36" etag="OLfnfoDxIHKDFo40nG-x" version="23.1.2" type="github" pages="2">
  <diagram name="Page-1" id="kUrJyP3hPcw0KVRRPLDu">
    <mxGraphModel dx="1050" dy="637" grid="1" gridSize="10" guides="1" tooltips="1" connect="1" arrows="1" fold="1" page="1" pageScale="1" pageWidth="850" pageHeight="1100" math="0" shadow="0">
      <root>
        <mxCell id="0" />
        <mxCell id="1" parent="0" />
        <mxCell id="TPA7m0evjedZW9a33_sm-21" style="edgeStyle=orthogonalEdgeStyle;rounded=0;orthogonalLoop=1;jettySize=auto;html=1;entryX=0;entryY=0.5;entryDx=0;entryDy=0;" parent="1" source="TPA7m0evjedZW9a33_sm-6" target="TPA7m0evjedZW9a33_sm-2" edge="1">
          <mxGeometry relative="1" as="geometry" />
        </mxCell>
        <mxCell id="TPA7m0evjedZW9a33_sm-6" value="DH source files" style="rounded=1;whiteSpace=wrap;html=1;dashed=1;dashPattern=8 8;fillColor=none;labelPosition=center;verticalLabelPosition=top;align=center;verticalAlign=bottom;fontStyle=5" parent="1" vertex="1">
          <mxGeometry x="10" y="140" width="90" height="336" as="geometry" />
        </mxCell>
        <mxCell id="TPA7m0evjedZW9a33_sm-23" style="edgeStyle=orthogonalEdgeStyle;rounded=0;orthogonalLoop=1;jettySize=auto;html=1;" parent="1" source="TPA7m0evjedZW9a33_sm-1" target="TPA7m0evjedZW9a33_sm-22" edge="1">
          <mxGeometry relative="1" as="geometry" />
        </mxCell>
        <mxCell id="TPA7m0evjedZW9a33_sm-1" value="2018 tenis db" style="shape=cylinder3;whiteSpace=wrap;html=1;boundedLbl=1;backgroundOutline=1;size=7;verticalAlign=top;fontStyle=1;fontSize=18;fillColor=#e1d5e7;strokeColor=#9673a6;fontFamily=Georgia;strokeWidth=4;" parent="1" vertex="1">
          <mxGeometry x="350" y="110" width="280" height="430" as="geometry" />
        </mxCell>
        <mxCell id="TPA7m0evjedZW9a33_sm-2" value="Load &lt;br&gt;DH Historical data into Access database" style="ellipse;whiteSpace=wrap;html=1;fillColor=#fff2cc;strokeColor=#d6b656;fontFamily=Times New Roman;fontStyle=2" parent="1" vertex="1">
          <mxGeometry x="160" y="256" width="100" height="70" as="geometry" />
        </mxCell>
        <mxCell id="TPA7m0evjedZW9a33_sm-3" value="&lt;p style=&quot;margin: 4px 0px 0px; text-align: center;&quot;&gt;&lt;b style=&quot;&quot;&gt;&lt;font face=&quot;Comic Sans MS&quot; color=&quot;#cc0000&quot; style=&quot;font-size: 10px;&quot;&gt;DH_Player_overview&lt;/font&gt;&lt;/b&gt;&lt;br style=&quot;font-size: 9px;&quot;&gt;&lt;/p&gt;&lt;hr style=&quot;font-size: 9px;&quot;&gt;# DH_player_id&lt;div style=&quot;height: 2px; font-size: 9px;&quot;&gt;&lt;br style=&quot;font-size: 9px;&quot;&gt;&lt;/div&gt;&lt;hr style=&quot;font-size: 9px;&quot;&gt;&lt;div style=&quot;height: 2px; font-size: 9px;&quot;&gt;&lt;/div&gt;" style="verticalAlign=top;align=left;overflow=fill;fontSize=9;fontFamily=Helvetica;html=1;whiteSpace=wrap;strokeWidth=2;" parent="1" vertex="1">
          <mxGeometry x="370" y="236" width="110" height="60" as="geometry" />
        </mxCell>
        <mxCell id="TPA7m0evjedZW9a33_sm-4" value="historical load" style="html=1;verticalAlign=bottom;endArrow=block;curved=0;rounded=0;entryX=0;entryY=0.5;entryDx=0;entryDy=0;entryPerimeter=0;" parent="1" source="TPA7m0evjedZW9a33_sm-2" target="TPA7m0evjedZW9a33_sm-1" edge="1">
          <mxGeometry width="80" relative="1" as="geometry">
            <mxPoint x="380" y="404" as="sourcePoint" />
            <mxPoint x="460" y="404" as="targetPoint" />
            <Array as="points" />
          </mxGeometry>
        </mxCell>
        <mxCell id="TPA7m0evjedZW9a33_sm-5" value="tournaments_&lt;br&gt;1877-2017.csv" style="strokeWidth=2;html=1;shape=mxgraph.flowchart.document2;whiteSpace=wrap;size=0.25;fontSize=8;fillColor=#f5f5f5;fontColor=#333333;strokeColor=#666666;" parent="1" vertex="1">
          <mxGeometry x="30" y="306" width="60" height="60" as="geometry" />
        </mxCell>
        <mxCell id="TPA7m0evjedZW9a33_sm-10" value="rankings_&lt;br&gt;1973-2017.csv" style="strokeWidth=2;html=1;shape=mxgraph.flowchart.document2;whiteSpace=wrap;size=0.25;fontSize=8;fillColor=#f5f5f5;fontColor=#333333;strokeColor=#666666;" parent="1" vertex="1">
          <mxGeometry x="30" y="156" width="60" height="60" as="geometry" />
        </mxCell>
        <mxCell id="TPA7m0evjedZW9a33_sm-11" value="player_&lt;br&gt;overviews.csv" style="strokeWidth=2;html=1;shape=mxgraph.flowchart.document2;whiteSpace=wrap;size=0.25;fontSize=8;fillColor=#f5f5f5;fontColor=#333333;strokeColor=#666666;" parent="1" vertex="1">
          <mxGeometry x="30" y="226" width="60" height="60" as="geometry" />
        </mxCell>
        <mxCell id="TPA7m0evjedZW9a33_sm-12" value="" style="strokeWidth=2;html=1;shape=mxgraph.flowchart.document2;whiteSpace=wrap;size=0.25;fontSize=8;fillColor=#f5f5f5;fontColor=#333333;strokeColor=#666666;" parent="1" vertex="1">
          <mxGeometry x="30" y="390" width="60" height="60" as="geometry" />
        </mxCell>
        <mxCell id="TPA7m0evjedZW9a33_sm-13" value="match_&lt;br&gt;scores.csv&lt;br&gt;(1877-2017)" style="strokeWidth=2;html=1;shape=mxgraph.flowchart.document2;whiteSpace=wrap;size=0.25;fontSize=8;fillColor=#f5f5f5;fontColor=#333333;strokeColor=#666666;" parent="1" vertex="1">
          <mxGeometry x="35" y="400" width="60" height="60" as="geometry" />
        </mxCell>
        <mxCell id="TPA7m0evjedZW9a33_sm-16" value="&lt;p style=&quot;margin: 4px 0px 0px; text-align: center;&quot;&gt;&lt;b style=&quot;&quot;&gt;&lt;font face=&quot;Comic Sans MS&quot; color=&quot;#cc0000&quot; style=&quot;font-size: 10px;&quot;&gt;DH_Rankings&lt;/font&gt;&lt;/b&gt;&lt;br style=&quot;font-size: 9px;&quot;&gt;&lt;/p&gt;&lt;hr style=&quot;font-size: 9px;&quot;&gt;# DH_player_id&lt;br&gt;# Rank_data&lt;br&gt;&lt;div style=&quot;height: 2px; font-size: 9px;&quot;&gt;&lt;br style=&quot;font-size: 9px;&quot;&gt;&lt;/div&gt;&lt;hr style=&quot;font-size: 9px;&quot;&gt;&lt;div style=&quot;height: 2px; font-size: 9px;&quot;&gt;&lt;/div&gt;" style="verticalAlign=top;align=left;overflow=fill;fontSize=9;fontFamily=Helvetica;html=1;whiteSpace=wrap;strokeWidth=2;" parent="1" vertex="1">
          <mxGeometry x="370" y="166" width="110" height="60" as="geometry" />
        </mxCell>
        <mxCell id="TPA7m0evjedZW9a33_sm-17" value="&lt;p style=&quot;margin: 4px 0px 0px; text-align: center;&quot;&gt;&lt;b style=&quot;&quot;&gt;&lt;font face=&quot;Comic Sans MS&quot; color=&quot;#cc0000&quot; style=&quot;font-size: 10px;&quot;&gt;DH_Tournament&lt;/font&gt;&lt;/b&gt;&lt;br style=&quot;font-size: 9px;&quot;&gt;&lt;/p&gt;&lt;hr style=&quot;font-size: 9px;&quot;&gt;# DH_tournament_name&lt;br&gt;&lt;div style=&quot;height: 2px; font-size: 9px;&quot;&gt;&lt;br style=&quot;font-size: 9px;&quot;&gt;&lt;/div&gt;&lt;hr style=&quot;font-size: 9px;&quot;&gt;&lt;div style=&quot;height: 2px; font-size: 9px;&quot;&gt;&lt;/div&gt;" style="verticalAlign=top;align=left;overflow=fill;fontSize=9;fontFamily=Helvetica;html=1;whiteSpace=wrap;strokeWidth=2;" parent="1" vertex="1">
          <mxGeometry x="370" y="306" width="110" height="60" as="geometry" />
        </mxCell>
        <mxCell id="TPA7m0evjedZW9a33_sm-18" value="&lt;p style=&quot;margin: 4px 0px 0px; text-align: center;&quot;&gt;&lt;b style=&quot;&quot;&gt;&lt;font face=&quot;Comic Sans MS&quot; color=&quot;#cc0000&quot; style=&quot;font-size: 10px;&quot;&gt;stgWebAP_Match&lt;/font&gt;&lt;/b&gt;&lt;br style=&quot;font-size: 9px;&quot;&gt;&lt;/p&gt;&lt;hr style=&quot;font-size: 9px;&quot;&gt;# DH_tournament_name&lt;br&gt;# DH_Player_id&lt;br&gt;# Opponent_id&lt;br&gt;&lt;div style=&quot;height: 2px; font-size: 9px;&quot;&gt;&lt;br style=&quot;font-size: 9px;&quot;&gt;&lt;/div&gt;&lt;hr style=&quot;font-size: 9px;&quot;&gt;&lt;div style=&quot;height: 2px; font-size: 9px;&quot;&gt;&lt;/div&gt;" style="verticalAlign=top;align=left;overflow=fill;fontSize=9;fontFamily=Helvetica;html=1;whiteSpace=wrap;strokeWidth=2;" parent="1" vertex="1">
          <mxGeometry x="370" y="376" width="110" height="70" as="geometry" />
        </mxCell>
        <mxCell id="TPA7m0evjedZW9a33_sm-19" value="&lt;p style=&quot;margin: 4px 0px 0px; text-align: center;&quot;&gt;&lt;b style=&quot;&quot;&gt;&lt;font face=&quot;Comic Sans MS&quot; color=&quot;#cc0000&quot; style=&quot;font-size: 10px;&quot;&gt;Player_Event_Prize&lt;/font&gt;&lt;/b&gt;&lt;br style=&quot;font-size: 9px;&quot;&gt;&lt;/p&gt;&lt;hr style=&quot;font-size: 9px;&quot;&gt;# DH_tournament_name&lt;br&gt;# DH_Player_id&lt;br&gt;&lt;br&gt;&lt;div style=&quot;height: 2px; font-size: 9px;&quot;&gt;&lt;br style=&quot;font-size: 9px;&quot;&gt;&lt;/div&gt;&lt;hr style=&quot;font-size: 9px;&quot;&gt;&lt;div style=&quot;height: 2px; font-size: 9px;&quot;&gt;&lt;/div&gt;" style="verticalAlign=top;align=left;overflow=fill;fontSize=9;fontFamily=Helvetica;html=1;whiteSpace=wrap;strokeWidth=2;" parent="1" vertex="1">
          <mxGeometry x="500" y="326" width="110" height="60" as="geometry" />
        </mxCell>
        <mxCell id="TPA7m0evjedZW9a33_sm-20" value="&lt;p style=&quot;margin: 4px 0px 0px; text-align: center;&quot;&gt;&lt;b style=&quot;&quot;&gt;&lt;font face=&quot;Comic Sans MS&quot; color=&quot;#cc0000&quot; style=&quot;font-size: 10px;&quot;&gt;a_Player&lt;/font&gt;&lt;/b&gt;&lt;br style=&quot;font-size: 9px;&quot;&gt;&lt;/p&gt;&lt;hr style=&quot;font-size: 9px;&quot;&gt;# Player_id&lt;br&gt;&lt;div style=&quot;height: 2px; font-size: 9px;&quot;&gt;&lt;br style=&quot;font-size: 9px;&quot;&gt;&lt;/div&gt;&lt;hr style=&quot;font-size: 9px;&quot;&gt;&lt;div style=&quot;height: 2px; font-size: 9px;&quot;&gt;+ DH_player_id&lt;/div&gt;" style="verticalAlign=top;align=left;overflow=fill;fontSize=9;fontFamily=Helvetica;html=1;whiteSpace=wrap;strokeWidth=2;" parent="1" vertex="1">
          <mxGeometry x="500" y="200" width="110" height="75" as="geometry" />
        </mxCell>
        <mxCell id="TPA7m0evjedZW9a33_sm-22" value="Cleanup and standardize data" style="ellipse;whiteSpace=wrap;html=1;fillColor=#fff2cc;strokeColor=#d6b656;fontFamily=Times New Roman;fontStyle=2" parent="1" vertex="1">
          <mxGeometry x="690" y="290" width="100" height="70" as="geometry" />
        </mxCell>
        <mxCell id="TPA7m0evjedZW9a33_sm-25" value="updates/deletes" style="html=1;verticalAlign=bottom;endArrow=block;curved=0;rounded=0;entryX=1;entryY=0;entryDx=0;entryDy=111;entryPerimeter=0;exitX=0.5;exitY=0;exitDx=0;exitDy=0;" parent="1" source="TPA7m0evjedZW9a33_sm-22" target="TPA7m0evjedZW9a33_sm-1" edge="1">
          <mxGeometry width="80" relative="1" as="geometry">
            <mxPoint x="730" y="50" as="sourcePoint" />
            <mxPoint x="350" y="95" as="targetPoint" />
            <Array as="points" />
          </mxGeometry>
        </mxCell>
        <mxCell id="TPA7m0evjedZW9a33_sm-28" value="Load &lt;br&gt;weekly new tennis data" style="ellipse;whiteSpace=wrap;html=1;fillColor=#fff2cc;strokeColor=#d6b656;fontFamily=Times New Roman;fontStyle=2" parent="1" vertex="1">
          <mxGeometry x="180" y="460" width="100" height="70" as="geometry" />
        </mxCell>
        <mxCell id="TPA7m0evjedZW9a33_sm-29" value="appends" style="html=1;verticalAlign=bottom;endArrow=block;curved=0;rounded=0;exitX=1;exitY=0.5;exitDx=0;exitDy=0;" parent="1" source="TPA7m0evjedZW9a33_sm-28" target="TPA7m0evjedZW9a33_sm-1" edge="1">
          <mxGeometry width="80" relative="1" as="geometry">
            <mxPoint x="300" y="446" as="sourcePoint" />
            <mxPoint x="190" y="377" as="targetPoint" />
            <Array as="points" />
          </mxGeometry>
        </mxCell>
        <mxCell id="TPA7m0evjedZW9a33_sm-31" style="edgeStyle=orthogonalEdgeStyle;rounded=0;orthogonalLoop=1;jettySize=auto;html=1;entryX=0;entryY=0.5;entryDx=0;entryDy=0;" parent="1" source="TPA7m0evjedZW9a33_sm-30" target="TPA7m0evjedZW9a33_sm-28" edge="1">
          <mxGeometry relative="1" as="geometry" />
        </mxCell>
        <mxCell id="TPA7m0evjedZW9a33_sm-30" value="ATP data" style="ellipse;shape=cloud;whiteSpace=wrap;html=1;" parent="1" vertex="1">
          <mxGeometry x="5" y="520" width="120" height="80" as="geometry" />
        </mxCell>
        <mxCell id="TPA7m0evjedZW9a33_sm-33" value="DFD for original 2018 Tennis Application" style="text;html=1;align=center;verticalAlign=middle;resizable=0;points=[];autosize=1;strokeColor=none;fillColor=none;fontSize=21;fontStyle=5;fontFamily=Times New Roman;" parent="1" vertex="1">
          <mxGeometry x="220" y="10" width="390" height="40" as="geometry" />
        </mxCell>
      </root>
    </mxGraphModel>
  </diagram>
  <diagram id="6QrNqLyFVGoQ9iHIlT0e" name="Page-2">
    <mxGraphModel dx="1050" dy="637" grid="1" gridSize="10" guides="1" tooltips="1" connect="1" arrows="1" fold="1" page="1" pageScale="1" pageWidth="850" pageHeight="1100" math="0" shadow="0">
      <root>
        <mxCell id="0" />
        <mxCell id="1" parent="0" />
        <mxCell id="ia9g208NGthnIns1Js7v-1" style="edgeStyle=orthogonalEdgeStyle;rounded=0;orthogonalLoop=1;jettySize=auto;html=1;entryX=0;entryY=0.5;entryDx=0;entryDy=0;" edge="1" parent="1" source="ia9g208NGthnIns1Js7v-2" target="ia9g208NGthnIns1Js7v-5">
          <mxGeometry relative="1" as="geometry" />
        </mxCell>
        <mxCell id="ia9g208NGthnIns1Js7v-2" value="JS source files" style="rounded=1;whiteSpace=wrap;html=1;dashed=1;dashPattern=8 8;fillColor=none;labelPosition=center;verticalLabelPosition=top;align=center;verticalAlign=bottom;fontStyle=5" vertex="1" parent="1">
          <mxGeometry x="40" y="84" width="230" height="86" as="geometry" />
        </mxCell>
        <mxCell id="rsy9YDghOHEI1X4kbh3S-1" style="edgeStyle=orthogonalEdgeStyle;rounded=0;orthogonalLoop=1;jettySize=auto;html=1;entryX=0;entryY=0.5;entryDx=0;entryDy=0;" edge="1" parent="1" source="ia9g208NGthnIns1Js7v-4" target="rq-Y3VDfe2iDIdXbpSSq-2">
          <mxGeometry relative="1" as="geometry" />
        </mxCell>
        <mxCell id="ia9g208NGthnIns1Js7v-4" value="source_JS_tenis&lt;br&gt;&lt;i style=&quot;border-color: var(--border-color); color: rgb(51, 0, 0); font-size: 15px; font-weight: 400;&quot;&gt;(1967 - 2023)&lt;/i&gt;" style="shape=cylinder3;whiteSpace=wrap;html=1;boundedLbl=1;backgroundOutline=1;size=7;verticalAlign=top;fontStyle=1;fontSize=18;fontColor=#990000;fillColor=#f5f5f5;strokeColor=#99004D;fontFamily=Georgia;strokeWidth=4;" vertex="1" parent="1">
          <mxGeometry x="320" y="230" width="190" height="100" as="geometry" />
        </mxCell>
        <mxCell id="ia9g208NGthnIns1Js7v-5" value="Load &lt;br&gt;DH Historical data into Access database" style="ellipse;whiteSpace=wrap;html=1;fillColor=#fff2cc;strokeColor=#d6b656;fontFamily=Times New Roman;fontStyle=2" vertex="1" parent="1">
          <mxGeometry x="360" y="90" width="100" height="70" as="geometry" />
        </mxCell>
        <mxCell id="ia9g208NGthnIns1Js7v-7" value="historical load" style="html=1;verticalAlign=bottom;endArrow=block;curved=0;rounded=0;" edge="1" parent="1" source="ia9g208NGthnIns1Js7v-5">
          <mxGeometry width="80" relative="1" as="geometry">
            <mxPoint x="380" y="404" as="sourcePoint" />
            <mxPoint x="410" y="240" as="targetPoint" />
            <Array as="points" />
          </mxGeometry>
        </mxCell>
        <mxCell id="ia9g208NGthnIns1Js7v-9" value="rankings_&lt;br&gt;1973-2017.csv" style="strokeWidth=2;html=1;shape=mxgraph.flowchart.document2;whiteSpace=wrap;size=0.25;fontSize=8;fillColor=#f5f5f5;fontColor=#333333;strokeColor=#666666;" vertex="1" parent="1">
          <mxGeometry x="60" y="100" width="60" height="60" as="geometry" />
        </mxCell>
        <mxCell id="ia9g208NGthnIns1Js7v-13" value="&lt;p style=&quot;margin: 4px 0px 0px; text-align: center;&quot;&gt;&lt;b style=&quot;&quot;&gt;&lt;font face=&quot;Comic Sans MS&quot; color=&quot;#cc0000&quot; style=&quot;font-size: 10px;&quot;&gt;DH_Rankings&lt;/font&gt;&lt;/b&gt;&lt;br style=&quot;font-size: 9px;&quot;&gt;&lt;/p&gt;&lt;hr style=&quot;font-size: 9px;&quot;&gt;# DH_player_id&lt;br&gt;# Rank_data&lt;br&gt;&lt;div style=&quot;height: 2px; font-size: 9px;&quot;&gt;&lt;br style=&quot;font-size: 9px;&quot;&gt;&lt;/div&gt;&lt;hr style=&quot;font-size: 9px;&quot;&gt;&lt;div style=&quot;height: 2px; font-size: 9px;&quot;&gt;&lt;/div&gt;" style="verticalAlign=top;align=left;overflow=fill;fontSize=9;fontFamily=Helvetica;html=1;whiteSpace=wrap;strokeWidth=2;" vertex="1" parent="1">
          <mxGeometry x="35" y="290" width="110" height="60" as="geometry" />
        </mxCell>
        <mxCell id="ia9g208NGthnIns1Js7v-20" value="Load &lt;br&gt;weekly new tennis data" style="ellipse;whiteSpace=wrap;html=1;fillColor=#fff2cc;strokeColor=#d6b656;fontFamily=Times New Roman;fontStyle=2" vertex="1" parent="1">
          <mxGeometry x="170" y="540" width="100" height="70" as="geometry" />
        </mxCell>
        <mxCell id="ia9g208NGthnIns1Js7v-21" value="appends" style="html=1;verticalAlign=bottom;endArrow=block;curved=0;rounded=0;exitX=1;exitY=0.5;exitDx=0;exitDy=0;" edge="1" parent="1" source="ia9g208NGthnIns1Js7v-20">
          <mxGeometry width="80" relative="1" as="geometry">
            <mxPoint x="300" y="446" as="sourcePoint" />
            <mxPoint x="340" y="490" as="targetPoint" />
            <Array as="points" />
          </mxGeometry>
        </mxCell>
        <mxCell id="ia9g208NGthnIns1Js7v-22" style="edgeStyle=orthogonalEdgeStyle;rounded=0;orthogonalLoop=1;jettySize=auto;html=1;entryX=0;entryY=0.5;entryDx=0;entryDy=0;" edge="1" parent="1" target="ia9g208NGthnIns1Js7v-20">
          <mxGeometry relative="1" as="geometry">
            <mxPoint x="125" y="560" as="sourcePoint" />
          </mxGeometry>
        </mxCell>
        <mxCell id="ia9g208NGthnIns1Js7v-23" value="DFD for original 2018 Tennis Application" style="text;html=1;align=center;verticalAlign=middle;resizable=0;points=[];autosize=1;strokeColor=none;fillColor=none;fontSize=21;fontStyle=5;fontFamily=Times New Roman;" vertex="1" parent="1">
          <mxGeometry x="220" y="10" width="390" height="40" as="geometry" />
        </mxCell>
        <mxCell id="Kvx5Bezul_jwcsZ_nHLZ-1" value="2018 tenis db" style="shape=cylinder3;whiteSpace=wrap;html=1;boundedLbl=1;backgroundOutline=1;size=7;verticalAlign=top;fontStyle=1;fontSize=18;fillColor=#e1d5e7;strokeColor=#9673a6;fontFamily=Georgia;strokeWidth=4;" vertex="1" parent="1">
          <mxGeometry x="600" y="70" width="150" height="80" as="geometry" />
        </mxCell>
        <mxCell id="rsy9YDghOHEI1X4kbh3S-2" style="edgeStyle=orthogonalEdgeStyle;rounded=0;orthogonalLoop=1;jettySize=auto;html=1;entryX=1;entryY=0.5;entryDx=0;entryDy=0;" edge="1" parent="1" source="19PLly3L3Tm9SyISZyiF-1" target="rq-Y3VDfe2iDIdXbpSSq-2">
          <mxGeometry relative="1" as="geometry" />
        </mxCell>
        <mxCell id="19PLly3L3Tm9SyISZyiF-1" value="source_DH_tenis&lt;br&gt;&lt;font color=&quot;#330000&quot; style=&quot;font-size: 15px; font-weight: normal;&quot;&gt;&lt;i&gt;(1880 - 2018)&lt;/i&gt;&lt;/font&gt;" style="shape=cylinder3;whiteSpace=wrap;html=1;boundedLbl=1;backgroundOutline=1;size=7;verticalAlign=top;fontStyle=1;fontSize=18;fontColor=#990000;fillColor=#f5f5f5;strokeColor=#99004D;fontFamily=Georgia;strokeWidth=4;" vertex="1" parent="1">
          <mxGeometry x="575" y="230" width="200" height="100" as="geometry" />
        </mxCell>
        <mxCell id="19PLly3L3Tm9SyISZyiF-2" style="edgeStyle=orthogonalEdgeStyle;rounded=0;orthogonalLoop=1;jettySize=auto;html=1;exitX=0.5;exitY=1;exitDx=0;exitDy=0;exitPerimeter=0;entryX=0.5;entryY=0;entryDx=0;entryDy=0;entryPerimeter=0;" edge="1" parent="1" source="Kvx5Bezul_jwcsZ_nHLZ-1" target="19PLly3L3Tm9SyISZyiF-1">
          <mxGeometry relative="1" as="geometry" />
        </mxCell>
        <mxCell id="19PLly3L3Tm9SyISZyiF-3" value="copy DH source data" style="edgeLabel;html=1;align=center;verticalAlign=middle;resizable=0;points=[];" vertex="1" connectable="0" parent="19PLly3L3Tm9SyISZyiF-2">
          <mxGeometry x="-0.18" relative="1" as="geometry">
            <mxPoint as="offset" />
          </mxGeometry>
        </mxCell>
        <mxCell id="rq-Y3VDfe2iDIdXbpSSq-1" value="tenis_main&lt;br&gt;&lt;i style=&quot;border-color: var(--border-color); color: rgb(51, 0, 0); font-size: 15px; font-weight: 400;&quot;&gt;(1880 - 2024)&lt;/i&gt;" style="shape=cylinder3;whiteSpace=wrap;html=1;boundedLbl=1;backgroundOutline=1;size=7;verticalAlign=top;fontStyle=1;fontSize=18;fontColor=#990000;fillColor=#f5f5f5;strokeColor=#99004D;fontFamily=Georgia;strokeWidth=4;" vertex="1" parent="1">
          <mxGeometry x="430" y="440" width="190" height="100" as="geometry" />
        </mxCell>
        <mxCell id="rq-Y3VDfe2iDIdXbpSSq-2" value="Load &lt;br&gt;DH Historical data into Access database" style="ellipse;whiteSpace=wrap;html=1;fillColor=#fff2cc;strokeColor=#d6b656;fontFamily=Times New Roman;fontStyle=2" vertex="1" parent="1">
          <mxGeometry x="475" y="340" width="100" height="70" as="geometry" />
        </mxCell>
      </root>
    </mxGraphModel>
  </diagram>
</mxfile>
